<mxfile host="app.diagrams.net" agent="Mozilla/5.0 (Windows NT 10.0; Win64; x64) AppleWebKit/537.36 (KHTML, like Gecko) Chrome/136.0.0.0 Safari/537.36 Edg/136.0.0.0" version="27.1.4">
  <diagram id="C5RBs43oDa-KdzZeNtuy" name="Chatbot File Analyzer Workflow">
    <mxGraphModel dx="1042" dy="574" grid="1" gridSize="10" guides="1" tooltips="1" connect="1" arrows="1" fold="1" page="1" pageScale="1" pageWidth="827" pageHeight="1169" math="0" shadow="0">
      <root>
        <mxCell id="WIyWlLk6GJQsqaUBKTNV-0" />
        <mxCell id="WIyWlLk6GJQsqaUBKTNV-1" parent="WIyWlLk6GJQsqaUBKTNV-0" />
        <mxCell id="i82L8grHJ3i4aqLkbywe-0" value="User" style="rounded=1;fillColor=#D5E8D4;strokeColor=#82B366;fontSize=14;fontColor=#000000;" vertex="1" parent="WIyWlLk6GJQsqaUBKTNV-1">
          <mxGeometry x="335" y="10" width="120" height="40" as="geometry" />
        </mxCell>
        <mxCell id="i82L8grHJ3i4aqLkbywe-1" value="Upload File (.pdf/.txt)" style="rounded=1;fillColor=#FFE6CC;strokeColor=#D79B00;fontSize=14;fontColor=#000000;" vertex="1" parent="WIyWlLk6GJQsqaUBKTNV-1">
          <mxGeometry x="290" y="70" width="210" height="50" as="geometry" />
        </mxCell>
        <mxCell id="i82L8grHJ3i4aqLkbywe-2" value="Extract Text from File" style="rounded=1;fillColor=#FFF2CC;strokeColor=#D6B656;fontSize=14;fontColor=#000000;" vertex="1" parent="WIyWlLk6GJQsqaUBKTNV-1">
          <mxGeometry x="295" y="230" width="200" height="50" as="geometry" />
        </mxCell>
        <mxCell id="i82L8grHJ3i4aqLkbywe-3" value="Send Text to Groq API" style="rounded=1;fillColor=#DAE8FC;strokeColor=#6C8EBF;fontSize=14;fontColor=#000000;" vertex="1" parent="WIyWlLk6GJQsqaUBKTNV-1">
          <mxGeometry x="295" y="310" width="200" height="50" as="geometry" />
        </mxCell>
        <mxCell id="i82L8grHJ3i4aqLkbywe-4" value="Get Issue + Solution" style="rounded=1;fillColor=#E1D5E7;strokeColor=#9673A6;fontSize=14;fontColor=#000000;" vertex="1" parent="WIyWlLk6GJQsqaUBKTNV-1">
          <mxGeometry x="295" y="390" width="200" height="50" as="geometry" />
        </mxCell>
        <mxCell id="i82L8grHJ3i4aqLkbywe-5" value="Display Main Issue + Solution to User" style="rounded=1;fillColor=#F8CECC;strokeColor=#B85450;fontSize=14;fontColor=#000000;" vertex="1" parent="WIyWlLk6GJQsqaUBKTNV-1">
          <mxGeometry x="245" y="470" width="300" height="50" as="geometry" />
        </mxCell>
        <mxCell id="i82L8grHJ3i4aqLkbywe-6" value="User Asks a Question" style="rounded=1;fillColor=#D5E8D4;strokeColor=#82B366;fontSize=14;fontColor=#000000;" vertex="1" parent="WIyWlLk6GJQsqaUBKTNV-1">
          <mxGeometry x="335" y="560" width="120" height="40" as="geometry" />
        </mxCell>
        <mxCell id="i82L8grHJ3i4aqLkbywe-7" value="Groq API returns Answer" style="rounded=1;fillColor=#DAE8FC;strokeColor=#6C8EBF;fontSize=14;fontColor=#000000;" vertex="1" parent="WIyWlLk6GJQsqaUBKTNV-1">
          <mxGeometry x="295" y="630" width="200" height="50" as="geometry" />
        </mxCell>
        <mxCell id="i82L8grHJ3i4aqLkbywe-8" value="Generate Embedding from Answer" style="rounded=1;fillColor=#FFF2CC;strokeColor=#D6B656;fontSize=14;fontColor=#000000;" vertex="1" parent="WIyWlLk6GJQsqaUBKTNV-1">
          <mxGeometry x="300" y="720" width="200" height="50" as="geometry" />
        </mxCell>
        <mxCell id="i82L8grHJ3i4aqLkbywe-9" value="Compare with Existing FAQs\n(cosine similarity &gt; 0.8?)" style="rhombus;whiteSpace=wrap;rounded=0;fillColor=#FFE6CC;strokeColor=#D79B00;fontSize=14;fontColor=#000000;" vertex="1" parent="WIyWlLk6GJQsqaUBKTNV-1">
          <mxGeometry x="262.5" y="810" width="275" height="70" as="geometry" />
        </mxCell>
        <mxCell id="i82L8grHJ3i4aqLkbywe-10" value="Update frequency in DB" style="rounded=1;fillColor=#E1D5E7;strokeColor=#9673A6;fontSize=14;fontColor=#000000;" vertex="1" parent="WIyWlLk6GJQsqaUBKTNV-1">
          <mxGeometry x="130" y="920" width="200" height="50" as="geometry" />
        </mxCell>
        <mxCell id="i82L8grHJ3i4aqLkbywe-11" value="Promote to FAQ if freq â‰¥ 2" style="rounded=1;fillColor=#F8CECC;strokeColor=#B85450;fontSize=14;fontColor=#000000;" vertex="1" parent="WIyWlLk6GJQsqaUBKTNV-1">
          <mxGeometry x="140" y="1020" width="200" height="50" as="geometry" />
        </mxCell>
        <mxCell id="i82L8grHJ3i4aqLkbywe-41" style="edgeStyle=orthogonalEdgeStyle;rounded=0;orthogonalLoop=1;jettySize=auto;html=1;exitX=0.25;exitY=1;exitDx=0;exitDy=0;" edge="1" parent="WIyWlLk6GJQsqaUBKTNV-1" source="i82L8grHJ3i4aqLkbywe-12">
          <mxGeometry relative="1" as="geometry">
            <mxPoint x="550" y="950" as="targetPoint" />
          </mxGeometry>
        </mxCell>
        <mxCell id="i82L8grHJ3i4aqLkbywe-12" value="Generate FAQ Question from Answer" style="rounded=1;fillColor=#FFF2CC;strokeColor=#D6B656;fontSize=14;fontColor=#000000;" vertex="1" parent="WIyWlLk6GJQsqaUBKTNV-1">
          <mxGeometry x="500" y="920" width="200" height="50" as="geometry" />
        </mxCell>
        <mxCell id="i82L8grHJ3i4aqLkbywe-13" value="Insert New FAQ into DB" style="rounded=1;fillColor=#DAE8FC;strokeColor=#6C8EBF;fontSize=14;fontColor=#000000;" vertex="1" parent="WIyWlLk6GJQsqaUBKTNV-1">
          <mxGeometry x="495" y="1020" width="200" height="50" as="geometry" />
        </mxCell>
        <mxCell id="i82L8grHJ3i4aqLkbywe-14" value="Display Answer to User\n+ Update FAQ Section" style="rounded=1;fillColor=#E1D5E7;strokeColor=#9673A6;fontSize=14;fontColor=#000000;" vertex="1" parent="WIyWlLk6GJQsqaUBKTNV-1">
          <mxGeometry x="300" y="1100" width="250" height="60" as="geometry" />
        </mxCell>
        <mxCell id="i82L8grHJ3i4aqLkbywe-15" style="endArrow=block;strokeColor=#000000;" edge="1" parent="WIyWlLk6GJQsqaUBKTNV-1" source="i82L8grHJ3i4aqLkbywe-0" target="i82L8grHJ3i4aqLkbywe-1">
          <mxGeometry relative="1" as="geometry" />
        </mxCell>
        <mxCell id="i82L8grHJ3i4aqLkbywe-16" style="endArrow=block;strokeColor=#000000;entryX=0.5;entryY=0;entryDx=0;entryDy=0;" edge="1" parent="WIyWlLk6GJQsqaUBKTNV-1" source="i82L8grHJ3i4aqLkbywe-1" target="i82L8grHJ3i4aqLkbywe-30">
          <mxGeometry relative="1" as="geometry" />
        </mxCell>
        <mxCell id="i82L8grHJ3i4aqLkbywe-17" style="endArrow=block;strokeColor=#000000;" edge="1" parent="WIyWlLk6GJQsqaUBKTNV-1" source="i82L8grHJ3i4aqLkbywe-2" target="i82L8grHJ3i4aqLkbywe-3">
          <mxGeometry relative="1" as="geometry" />
        </mxCell>
        <mxCell id="i82L8grHJ3i4aqLkbywe-18" style="endArrow=block;strokeColor=#000000;" edge="1" parent="WIyWlLk6GJQsqaUBKTNV-1" source="i82L8grHJ3i4aqLkbywe-3" target="i82L8grHJ3i4aqLkbywe-4">
          <mxGeometry relative="1" as="geometry" />
        </mxCell>
        <mxCell id="i82L8grHJ3i4aqLkbywe-19" style="endArrow=block;strokeColor=#000000;" edge="1" parent="WIyWlLk6GJQsqaUBKTNV-1" source="i82L8grHJ3i4aqLkbywe-4" target="i82L8grHJ3i4aqLkbywe-5">
          <mxGeometry relative="1" as="geometry" />
        </mxCell>
        <mxCell id="i82L8grHJ3i4aqLkbywe-20" style="endArrow=block;strokeColor=#000000;" edge="1" parent="WIyWlLk6GJQsqaUBKTNV-1" source="i82L8grHJ3i4aqLkbywe-5" target="i82L8grHJ3i4aqLkbywe-6">
          <mxGeometry relative="1" as="geometry" />
        </mxCell>
        <mxCell id="i82L8grHJ3i4aqLkbywe-21" style="endArrow=block;strokeColor=#000000;" edge="1" parent="WIyWlLk6GJQsqaUBKTNV-1" source="i82L8grHJ3i4aqLkbywe-6" target="i82L8grHJ3i4aqLkbywe-7">
          <mxGeometry relative="1" as="geometry" />
        </mxCell>
        <mxCell id="i82L8grHJ3i4aqLkbywe-22" style="endArrow=block;strokeColor=#000000;" edge="1" parent="WIyWlLk6GJQsqaUBKTNV-1" source="i82L8grHJ3i4aqLkbywe-7" target="i82L8grHJ3i4aqLkbywe-8">
          <mxGeometry relative="1" as="geometry" />
        </mxCell>
        <mxCell id="i82L8grHJ3i4aqLkbywe-23" style="endArrow=block;strokeColor=#000000;" edge="1" parent="WIyWlLk6GJQsqaUBKTNV-1" source="i82L8grHJ3i4aqLkbywe-8" target="i82L8grHJ3i4aqLkbywe-9">
          <mxGeometry relative="1" as="geometry" />
        </mxCell>
        <mxCell id="i82L8grHJ3i4aqLkbywe-25" style="endArrow=block;strokeColor=#000000;" edge="1" parent="WIyWlLk6GJQsqaUBKTNV-1" source="i82L8grHJ3i4aqLkbywe-10" target="i82L8grHJ3i4aqLkbywe-11">
          <mxGeometry relative="1" as="geometry" />
        </mxCell>
        <mxCell id="i82L8grHJ3i4aqLkbywe-27" style="endArrow=block;strokeColor=#000000;" edge="1" parent="WIyWlLk6GJQsqaUBKTNV-1" source="i82L8grHJ3i4aqLkbywe-12" target="i82L8grHJ3i4aqLkbywe-13">
          <mxGeometry relative="1" as="geometry" />
        </mxCell>
        <mxCell id="i82L8grHJ3i4aqLkbywe-28" style="endArrow=block;strokeColor=#000000;" edge="1" parent="WIyWlLk6GJQsqaUBKTNV-1" source="i82L8grHJ3i4aqLkbywe-11" target="i82L8grHJ3i4aqLkbywe-14">
          <mxGeometry relative="1" as="geometry" />
        </mxCell>
        <mxCell id="i82L8grHJ3i4aqLkbywe-29" style="endArrow=block;strokeColor=#000000;" edge="1" parent="WIyWlLk6GJQsqaUBKTNV-1" source="i82L8grHJ3i4aqLkbywe-13" target="i82L8grHJ3i4aqLkbywe-14">
          <mxGeometry relative="1" as="geometry" />
        </mxCell>
        <mxCell id="i82L8grHJ3i4aqLkbywe-30" value="Check whether file is of .pdf or .txt format" style="rhombus;whiteSpace=wrap;html=1;fillColor=#e3c800;fontColor=#000000;strokeColor=#B09500;" vertex="1" parent="WIyWlLk6GJQsqaUBKTNV-1">
          <mxGeometry x="260" y="130" width="270" height="80" as="geometry" />
        </mxCell>
        <mxCell id="i82L8grHJ3i4aqLkbywe-32" value="" style="endArrow=classic;html=1;rounded=0;exitX=0;exitY=0.5;exitDx=0;exitDy=0;entryX=0.5;entryY=0;entryDx=0;entryDy=0;" edge="1" parent="WIyWlLk6GJQsqaUBKTNV-1" source="i82L8grHJ3i4aqLkbywe-30" target="i82L8grHJ3i4aqLkbywe-2">
          <mxGeometry width="50" height="50" relative="1" as="geometry">
            <mxPoint x="390" y="220" as="sourcePoint" />
            <mxPoint x="440" y="170" as="targetPoint" />
          </mxGeometry>
        </mxCell>
        <mxCell id="i82L8grHJ3i4aqLkbywe-37" style="edgeStyle=orthogonalEdgeStyle;rounded=0;orthogonalLoop=1;jettySize=auto;html=1;exitX=0.5;exitY=0;exitDx=0;exitDy=0;entryX=1;entryY=0.5;entryDx=0;entryDy=0;" edge="1" parent="WIyWlLk6GJQsqaUBKTNV-1" source="i82L8grHJ3i4aqLkbywe-33" target="i82L8grHJ3i4aqLkbywe-1">
          <mxGeometry relative="1" as="geometry" />
        </mxCell>
        <mxCell id="i82L8grHJ3i4aqLkbywe-33" value="unsupported file fomat" style="rounded=0;whiteSpace=wrap;html=1;fillColor=#e3c800;fontColor=#000000;strokeColor=#B09500;" vertex="1" parent="WIyWlLk6GJQsqaUBKTNV-1">
          <mxGeometry x="620" y="100" width="120" height="60" as="geometry" />
        </mxCell>
        <mxCell id="i82L8grHJ3i4aqLkbywe-34" value="" style="endArrow=classic;html=1;rounded=0;entryX=0;entryY=0.25;entryDx=0;entryDy=0;exitX=1;exitY=0.5;exitDx=0;exitDy=0;" edge="1" parent="WIyWlLk6GJQsqaUBKTNV-1" source="i82L8grHJ3i4aqLkbywe-30" target="i82L8grHJ3i4aqLkbywe-33">
          <mxGeometry width="50" height="50" relative="1" as="geometry">
            <mxPoint x="390" y="320" as="sourcePoint" />
            <mxPoint x="440" y="270" as="targetPoint" />
          </mxGeometry>
        </mxCell>
        <mxCell id="i82L8grHJ3i4aqLkbywe-39" value="" style="endArrow=classic;html=1;rounded=0;entryX=0.44;entryY=-0.076;entryDx=0;entryDy=0;entryPerimeter=0;exitX=0;exitY=0.5;exitDx=0;exitDy=0;" edge="1" parent="WIyWlLk6GJQsqaUBKTNV-1" source="i82L8grHJ3i4aqLkbywe-9" target="i82L8grHJ3i4aqLkbywe-10">
          <mxGeometry width="50" height="50" relative="1" as="geometry">
            <mxPoint x="390" y="920" as="sourcePoint" />
            <mxPoint x="440" y="870" as="targetPoint" />
          </mxGeometry>
        </mxCell>
        <mxCell id="i82L8grHJ3i4aqLkbywe-44" value="" style="endArrow=classic;html=1;rounded=0;exitX=0.973;exitY=0.529;exitDx=0;exitDy=0;exitPerimeter=0;entryX=0.5;entryY=0;entryDx=0;entryDy=0;" edge="1" parent="WIyWlLk6GJQsqaUBKTNV-1" source="i82L8grHJ3i4aqLkbywe-9" target="i82L8grHJ3i4aqLkbywe-12">
          <mxGeometry width="50" height="50" relative="1" as="geometry">
            <mxPoint x="560" y="820" as="sourcePoint" />
            <mxPoint x="620" y="890" as="targetPoint" />
            <Array as="points" />
          </mxGeometry>
        </mxCell>
      </root>
    </mxGraphModel>
  </diagram>
</mxfile>
